<?xml version="1.0" encoding="utf-8" standalone="no"?>
<!DOCTYPE svg PUBLIC "-//W3C//DTD SVG 1.1//EN"
  "http://www.w3.org/Graphics/SVG/1.1/DTD/svg11.dtd">
<svg xmlns:xlink="http://www.w3.org/1999/xlink" width="795.6pt" height="347.04pt" viewBox="0 0 795.6 347.04" xmlns="http://www.w3.org/2000/svg" version="1.1">
 <metadata>
  <rdf:RDF xmlns:dc="http://purl.org/dc/elements/1.1/" xmlns:cc="http://creativecommons.org/ns#" xmlns:rdf="http://www.w3.org/1999/02/22-rdf-syntax-ns#">
   <cc:Work>
    <dc:type rdf:resource="http://purl.org/dc/dcmitype/StillImage"/>
    <dc:date>2026-09-13T21:34:12.768056</dc:date>
    <dc:format>image/svg+xml</dc:format>
    <dc:creator>
     <cc:Agent>
      <dc:title>Matplotlib v3.10.8, https://matplotlib.org/</dc:title>
     </cc:Agent>
    </dc:creator>
   </cc:Work>
  </rdf:RDF>
 </metadata>
 <defs>
  <style type="text/css">*{stroke-linejoin: round; stroke-linecap: butt}</style>
 </defs>
 <g id="figure_1">
  <g id="patch_1">
   <path d="M 0 347.04 
L 795.6 347.04 
L 795.6 -0 
L 0 -0 
z
" style="fill: #ffffff"/>
  </g>
  <g id="axes_1">
   <g id="patch_2">
    <path d="M 18.081 203.1804 
L 102.339 203.1804 
Q 106.803 203.1804 106.803 198.7452 
L 106.803 148.2948 
Q 106.803 143.8596 102.339 143.8596 
L 18.081 143.8596 
Q 13.617 143.8596 13.617 148.2948 
L 13.617 198.7452 
Q 13.617 203.1804 18.081 203.1804 
z
" clip-path="url(#p55ed8a743f)" style="fill: #d7e8f2; stroke: #333333; stroke-linejoin: miter"/>
   </g>
   <g id="patch_3">
    <path d="M 138.051 92.3004 
L 266.949 92.3004 
Q 271.413 92.3004 271.413 87.8652 
L 271.413 37.4148 
Q 271.413 32.9796 266.949 32.9796 
L 138.051 32.9796 
Q 133.587 32.9796 133.587 37.4148 
L 133.587 87.8652 
Q 133.587 92.3004 138.051 92.3004 
z
" clip-path="url(#p55ed8a743f)" style="fill: #d6e8d5; stroke: #333333; stroke-linejoin: miter"/>
   </g>
   <g id="patch_4">
    <path d="M 299.871 92.3004 
L 417.609 92.3004 
Q 422.073 92.3004 422.073 87.8652 
L 422.073 37.4148 
Q 422.073 32.9796 417.609 32.9796 
L 299.871 32.9796 
Q 295.407 32.9796 295.407 37.4148 
L 295.407 87.8652 
Q 295.407 92.3004 299.871 92.3004 
z
" clip-path="url(#p55ed8a743f)" style="fill: #d6e8d5; stroke: #333333; stroke-linejoin: miter"/>
   </g>
   <g id="patch_5">
    <path d="M 456.111 92.3004 
L 585.009 92.3004 
Q 589.473 92.3004 589.473 87.8652 
L 589.473 37.4148 
Q 589.473 32.9796 585.009 32.9796 
L 456.111 32.9796 
Q 451.647 32.9796 451.647 37.4148 
L 451.647 87.8652 
Q 451.647 92.3004 456.111 92.3004 
z
" clip-path="url(#p55ed8a743f)" style="fill: #d7e8f2; stroke: #333333; stroke-linejoin: miter"/>
   </g>
   <g id="patch_6">
    <path d="M 623.511 92.3004 
L 757.989 92.3004 
Q 762.453 92.3004 762.453 87.8652 
L 762.453 37.4148 
Q 762.453 32.9796 757.989 32.9796 
L 623.511 32.9796 
Q 619.047 32.9796 619.047 37.4148 
L 619.047 87.8652 
Q 619.047 92.3004 623.511 92.3004 
z
" clip-path="url(#p55ed8a743f)" style="fill: #f7d4cc; stroke: #333333; stroke-linejoin: miter"/>
   </g>
   <g id="patch_7">
    <path d="M 138.051 203.1804 
L 266.949 203.1804 
Q 271.413 203.1804 271.413 198.7452 
L 271.413 148.2948 
Q 271.413 143.8596 266.949 143.8596 
L 138.051 143.8596 
Q 133.587 143.8596 133.587 148.2948 
L 133.587 198.7452 
Q 133.587 203.1804 138.051 203.1804 
z
" clip-path="url(#p55ed8a743f)" style="fill: #f8e8b4; stroke: #333333; stroke-linejoin: miter"/>
   </g>
   <g id="patch_8">
    <path d="M 299.871 203.1804 
L 417.609 203.1804 
Q 422.073 203.1804 422.073 198.7452 
L 422.073 148.2948 
Q 422.073 143.8596 417.609 143.8596 
L 299.871 143.8596 
Q 295.407 143.8596 295.407 148.2948 
L 295.407 198.7452 
Q 295.407 203.1804 299.871 203.1804 
z
" clip-path="url(#p55ed8a743f)" style="fill: #f7d4cc; stroke: #333333; stroke-linejoin: miter"/>
   </g>
   <g id="patch_9">
    <path d="M 456.111 203.1804 
L 585.009 203.1804 
Q 589.473 203.1804 589.473 198.7452 
L 589.473 148.2948 
Q 589.473 143.8596 585.009 143.8596 
L 456.111 143.8596 
Q 451.647 143.8596 451.647 148.2948 
L 451.647 198.7452 
Q 451.647 203.1804 456.111 203.1804 
z
" clip-path="url(#p55ed8a743f)" style="fill: #d7e8f2; stroke: #333333; stroke-linejoin: miter"/>
   </g>
   <g id="patch_10">
    <path d="M 623.511 203.1804 
L 757.989 203.1804 
Q 762.453 203.1804 762.453 198.7452 
L 762.453 148.2948 
Q 762.453 143.8596 757.989 143.8596 
L 623.511 143.8596 
Q 619.047 143.8596 619.047 148.2948 
L 619.047 198.7452 
Q 619.047 203.1804 623.511 203.1804 
z
" clip-path="url(#p55ed8a743f)" style="fill: #d6e8d5; stroke: #333333; stroke-linejoin: miter"/>
   </g>
   <g id="patch_11">
    <path d="M 456.111 319.6044 
L 585.009 319.6044 
Q 589.473 319.6044 589.473 315.1692 
L 589.473 264.7188 
Q 589.473 260.2836 585.009 260.2836 
L 456.111 260.2836 
Q 451.647 260.2836 451.647 264.7188 
L 451.647 315.1692 
Q 451.647 319.6044 456.111 319.6044 
z
" clip-path="url(#p55ed8a743f)" style="fill: #d6e8d5; stroke: #333333; stroke-linejoin: miter"/>
   </g>
   <g id="patch_12">
    <path d="M 623.511 319.6044 
L 757.989 319.6044 
Q 762.453 319.6044 762.453 315.1692 
L 762.453 264.7188 
Q 762.453 260.2836 757.989 260.2836 
L 623.511 260.2836 
Q 619.047 260.2836 619.047 264.7188 
L 619.047 315.1692 
Q 619.047 319.6044 623.511 319.6044 
z
" clip-path="url(#p55ed8a743f)" style="fill: #d6e8d5; stroke: #333333; stroke-linejoin: miter"/>
   </g>
   <g id="patch_13">
    <path d="M 106.846798 173.52 
Q 120.19341 173.52 132.086578 173.52 
" clip-path="url(#p55ed8a743f)" style="fill: none; stroke: #333333; stroke-width: 1.3; stroke-linecap: round"/>
    <path d="M 126.886578 170.92 
L 132.086578 173.52 
L 126.886578 176.12 
z
" clip-path="url(#p55ed8a743f)" style="fill: #333333; stroke: #333333; stroke-width: 1.3; stroke-linecap: round"/>
   </g>
   <g id="patch_14">
    <path d="M 105.542136 143.924535 
Q 120.194566 104.221177 134.34378 65.881372 
" clip-path="url(#p55ed8a743f)" style="fill: none; stroke: #333333; stroke-width: 1.3; stroke-linecap: round"/>
    <path d="M 130.104225 69.859584 
L 134.34378 65.881372 
L 134.982617 71.659943 
z
" clip-path="url(#p55ed8a743f)" style="fill: #333333; stroke: #333333; stroke-width: 1.3; stroke-linecap: round"/>
   </g>
   <g id="patch_15">
    <path d="M 271.459182 62.64 
Q 283.408906 62.64 293.905186 62.64 
" clip-path="url(#p55ed8a743f)" style="fill: none; stroke: #333333; stroke-width: 1.3; stroke-linecap: round"/>
    <path d="M 288.705186 60.04 
L 293.905186 62.64 
L 288.705186 65.24 
z
" clip-path="url(#p55ed8a743f)" style="fill: #333333; stroke: #333333; stroke-width: 1.3; stroke-linecap: round"/>
   </g>
   <g id="patch_16">
    <path d="M 422.118501 62.64 
Q 436.85816 62.64 450.144376 62.64 
" clip-path="url(#p55ed8a743f)" style="fill: none; stroke: #333333; stroke-width: 1.3; stroke-linecap: round"/>
    <path d="M 444.944376 60.04 
L 450.144376 62.64 
L 444.944376 65.24 
z
" clip-path="url(#p55ed8a743f)" style="fill: #333333; stroke: #333333; stroke-width: 1.3; stroke-linecap: round"/>
   </g>
   <g id="patch_17">
    <path d="M 589.518501 62.64 
Q 604.25816 62.64 617.544376 62.64 
" clip-path="url(#p55ed8a743f)" style="fill: none; stroke: #333333; stroke-width: 1.3; stroke-linecap: round"/>
    <path d="M 612.344376 60.04 
L 617.544376 62.64 
L 612.344376 65.24 
z
" clip-path="url(#p55ed8a743f)" style="fill: #333333; stroke: #333333; stroke-width: 1.3; stroke-linecap: round"/>
   </g>
   <g id="patch_18">
    <path d="M 271.459182 173.52 
Q 283.408906 173.52 293.905186 173.52 
" clip-path="url(#p55ed8a743f)" style="fill: none; stroke: #333333; stroke-width: 1.3; stroke-linecap: round"/>
    <path d="M 288.705186 170.92 
L 293.905186 173.52 
L 288.705186 176.12 
z
" clip-path="url(#p55ed8a743f)" style="fill: #333333; stroke: #333333; stroke-width: 1.3; stroke-linecap: round"/>
   </g>
   <g id="patch_19">
    <path d="M 422.118501 173.52 
Q 436.85816 173.52 450.144376 173.52 
" clip-path="url(#p55ed8a743f)" style="fill: none; stroke: #333333; stroke-width: 1.3; stroke-linecap: round"/>
    <path d="M 444.944376 170.92 
L 450.144376 173.52 
L 444.944376 176.12 
z
" clip-path="url(#p55ed8a743f)" style="fill: #333333; stroke: #333333; stroke-width: 1.3; stroke-linecap: round"/>
   </g>
   <g id="patch_20">
    <path d="M 589.518501 173.52 
Q 604.25816 173.52 617.544376 173.52 
" clip-path="url(#p55ed8a743f)" style="fill: none; stroke: #333333; stroke-width: 1.3; stroke-linecap: round"/>
    <path d="M 612.344376 170.92 
L 617.544376 173.52 
L 612.344376 176.12 
z
" clip-path="url(#p55ed8a743f)" style="fill: #333333; stroke: #333333; stroke-width: 1.3; stroke-linecap: round"/>
   </g>
   <g id="patch_21">
    <path d="M 688.867252 201.914643 
Q 605.654859 231.732051 523.810719 261.059173 
" clip-path="url(#p55ed8a743f)" style="fill: none; stroke: #333333; stroke-width: 1.3; stroke-linecap: round"/>
    <path d="M 529.582984 261.752684 
L 523.810719 261.059173 
L 527.828887 256.857468 
z
" clip-path="url(#p55ed8a743f)" style="fill: #333333; stroke: #333333; stroke-width: 1.3; stroke-linecap: round"/>
   </g>
   <g id="patch_22">
    <path d="M 589.518501 289.944 
Q 604.25816 289.944 617.544376 289.944 
" clip-path="url(#p55ed8a743f)" style="fill: none; stroke: #333333; stroke-width: 1.3; stroke-linecap: round"/>
    <path d="M 612.344376 287.344 
L 617.544376 289.944 
L 612.344376 292.544 
z
" clip-path="url(#p55ed8a743f)" style="fill: #333333; stroke: #333333; stroke-width: 1.3; stroke-linecap: round"/>
   </g>
   <g id="patch_23">
    <path d="M 360.711723 145.467966 
Q 523.350911 118.079847 684.556835 90.933086 
" clip-path="url(#p55ed8a743f)" style="fill: none; stroke-dasharray: 4.81,2.08; stroke-dashoffset: 0; stroke: #333333; stroke-width: 1.3; stroke-linecap: round"/>
    <path d="M 678.997277 89.232697 
L 684.556835 90.933086 
L 679.860789 94.360499 
z
" clip-path="url(#p55ed8a743f)" style="fill: #333333; stroke-dasharray: 4.81,2.08; stroke-dashoffset: 0; stroke: #333333; stroke-width: 1.3; stroke-linecap: round"/>
   </g>
   <g id="patch_24">
    <path d="M 635.783305 90.756749 
Q 501.031283 118.07974 367.703718 145.1139 
" clip-path="url(#p55ed8a743f)" style="fill: none; stroke-dasharray: 4.81,2.08; stroke-dashoffset: 0; stroke: #a82c2c; stroke-width: 1.3; stroke-linecap: round"/>
    <path d="M 373.316684 146.628697 
L 367.703718 145.1139 
L 372.283335 141.532405 
z
" clip-path="url(#p55ed8a743f)" style="fill: #a82c2c; stroke-dasharray: 4.81,2.08; stroke-dashoffset: 0; stroke: #a82c2c; stroke-width: 1.3; stroke-linecap: round"/>
   </g>
   <g id="text_1">
    <text style="font-size: 11px; font-family: 'DejaVu Sans'" transform="translate(18.968594 170.396516)">Real plant RGB</text>
    <text style="font-size: 11px; font-family: 'DejaVu Sans'" transform="translate(14.517891 182.714109)">+ automatic ROI</text>
   </g>
   <g id="text_2">
    <text style="font-size: 11px; font-family: 'DejaVu Sans'" transform="translate(153.650547 59.516516)">G1-prime Teacher</text>
    <text style="font-size: 11px; font-family: 'DejaVu Sans'" transform="translate(146.683594 71.834109)">geometry + DINOv2</text>
   </g>
   <g id="text_3">
    <text style="font-size: 11px; font-family: 'DejaVu Sans'" transform="translate(310.16125 59.516516)">9-view consensus</text>
    <text style="font-size: 11px; font-family: 'DejaVu Sans'" transform="translate(310.836719 71.834109)">(x, y, confidence)</text>
   </g>
   <g id="text_4">
    <text style="font-size: 11px; font-family: 'DejaVu Sans'" transform="translate(473.991328 59.516516)">Gaussian targets</text>
    <text style="font-size: 11px; font-family: 'DejaVu Sans'" transform="translate(492.8125 71.834109)">129 x 129</text>
   </g>
   <g id="text_5">
    <text style="font-size: 11px; font-family: 'DejaVu Sans'" transform="translate(651.972422 59.516516)">Weighted BCE</text>
    <text style="font-size: 11px; font-family: 'DejaVu Sans'" transform="translate(642.510703 71.834109)">+ 0.02 count loss</text>
   </g>
   <g id="text_6">
    <text style="font-size: 11px; font-family: 'DejaVu Sans'" transform="translate(144.909844 170.396516)">DINOv2 ViT-S/14-Reg</text>
    <text style="font-size: 11px; font-family: 'DejaVu Sans'" transform="translate(145.119531 182.714109)">ALL backbone frozen</text>
   </g>
   <g id="text_7">
    <text style="font-size: 11px; font-family: 'DejaVu Sans'" transform="translate(302.949375 170.396516)">Conv heatmap head</text>
    <text style="font-size: 11px; font-family: 'DejaVu Sans'" transform="translate(302.346094 182.714109)">830,401 parameters</text>
   </g>
   <g id="text_8">
    <text style="font-size: 11px; font-family: 'DejaVu Sans'" transform="translate(462.670781 170.396516)">Sigmoid + peak NMS</text>
    <text style="font-size: 11px; font-family: 'DejaVu Sans'" transform="translate(465.331406 182.714109)">variable point count</text>
   </g>
   <g id="text_9">
    <text style="font-size: 11px; font-family: 'DejaVu Sans'" transform="translate(633.048984 170.396516)">Accepted projections</text>
    <text style="font-size: 11px; font-family: 'DejaVu Sans'" transform="translate(629.088984 182.714109)">point-conditioned MST</text>
   </g>
   <g id="text_10">
    <text style="font-size: 11px; font-family: 'DejaVu Sans'" transform="translate(465.01 286.820516)">Local-width decoder</text>
    <text style="font-size: 11px; font-family: 'DejaVu Sans'" transform="translate(462.637266 299.138109)">learned basal anchor</text>
   </g>
   <g id="text_11">
    <text style="font-size: 11px; font-family: 'DejaVu Sans'" transform="translate(639.758125 286.820516)">PCHIP + geometry</text>
    <text style="font-size: 11px; font-family: 'DejaVu Sans'" transform="translate(629.334766 299.138109)">candidate phenotypes</text>
   </g>
   <g id="text_12">
    <text style="font-size: 10px; font-family: 'DejaVu Sans'" transform="translate(15.57 281.408375)">Solid arrows: inference / data flow</text>
    <text style="font-size: 10px; font-family: 'DejaVu Sans'" transform="translate(15.57 292.606188)">Dashed arrows: training only</text>
    <text style="font-size: 10px; font-family: 'DejaVu Sans'" transform="translate(15.57 303.804)">Green: deterministic geometry   Yellow: frozen   Pink: trainable</text>
   </g>
  </g>
 </g>
 <defs>
  <clipPath id="p55ed8a743f">
   <rect x="7.2" y="7.2" width="781.2" height="332.64"/>
  </clipPath>
 </defs>
</svg>
